../results/experiments/subject02/walk3/expdata/ground_reaction.mot
version=1
nRows=33
nColumns=19
inDegrees=no
endheader
time	ground_force_r_vx	ground_force_r_vy	ground_force_r_vz	ground_force_r_px	ground_force_r_py	ground_force_r_pz	ground_force_l_vx	ground_force_l_vy	ground_force_l_vz	ground_force_l_px	ground_force_l_py	ground_force_l_pz	ground_torque_r_x	ground_torque_r_y	ground_torque_r_z	ground_torque_l_x	ground_torque_l_y	ground_torque_l_z
4.200000	-30.498117	557.479858	-15.021178	1.006778	0.000000	-0.411236	-0.585509	2.047439	1.790749	0.000000	0.000000	0.000000	-0.000000	3.991368	-0.000000	0.000000	0.000000	0.000000
4.201042	-29.972099	555.321655	-14.804579	1.005787	0.000000	-0.411208	-0.568767	1.991084	1.714692	0.000000	0.000000	0.000000	-0.000000	4.004210	-0.000000	0.000000	0.000000	0.000000
4.202083	-29.476068	553.206543	-14.585030	1.004806	0.000000	-0.411177	-0.546671	1.927577	1.626878	0.000000	0.000000	0.000000	-0.000000	4.014492	-0.000000	0.000000	0.000000	0.000000
4.203125	-29.011152	551.132202	-14.365208	1.003832	0.000000	-0.411141	-0.520286	1.858065	1.530224	0.000000	0.000000	0.000000	-0.000000	4.022326	-0.000000	0.000000	0.000000	0.000000
4.204167	-28.577847	549.095947	-14.148219	1.002866	0.000000	-0.411102	-0.490737	1.783799	1.427744	0.000000	0.000000	0.000000	-0.000000	4.027832	-0.000000	0.000000	0.000000	0.000000
4.205208	-28.175962	547.094849	-13.937560	1.001907	0.000000	-0.411058	-0.459170	1.706102	1.322456	0.000000	0.000000	0.000000	-0.000000	4.031144	-0.000000	0.000000	0.000000	0.000000
4.206250	-27.804598	545.126099	-13.737057	1.000955	0.000000	-0.411011	-0.426713	1.626336	1.217288	0.000000	0.000000	0.000000	-0.000000	4.032405	-0.000000	0.000000	0.000000	0.000000
4.207292	-27.462160	543.186951	-13.550800	1.000010	0.000000	-0.410961	-0.394442	1.545868	1.114991	0.000000	0.000000	0.000000	-0.000000	4.031764	-0.000000	0.000000	0.000000	0.000000
4.208333	-27.146399	541.274902	-13.383073	0.999070	0.000000	-0.410908	-0.363352	1.466039	1.018075	0.000000	0.000000	0.000000	-0.000000	4.029381	-0.000000	0.000000	0.000000	0.000000
4.209375	-26.854471	539.387695	-13.238249	0.998136	0.000000	-0.410851	-0.334333	1.388137	0.928748	0.000000	0.000000	0.000000	-0.000000	4.025418	-0.000000	0.000000	0.000000	0.000000
4.210417	-26.583050	537.523682	-13.120703	0.997206	0.000000	-0.410792	-0.308148	1.313371	0.848877	0.000000	0.000000	0.000000	-0.000000	4.020043	-0.000000	0.000000	0.000000	0.000000
4.211458	-26.328424	535.681580	-13.034695	0.996280	0.000000	-0.410730	-0.285428	1.242849	0.779966	0.000000	0.000000	0.000000	-0.000000	4.013429	-0.000000	0.000000	0.000000	0.000000
4.212500	-26.086637	533.860840	-12.984255	0.995358	0.000000	-0.410665	-0.266658	1.177560	0.723138	0.000000	0.000000	0.000000	-0.000000	4.005746	-0.000000	0.000000	0.000000	0.000000
4.213542	-25.853624	532.061523	-12.973066	0.994439	0.000000	-0.410598	-0.252182	1.118359	0.679140	0.000000	0.000000	0.000000	-0.000000	3.997168	-0.000000	0.000000	0.000000	0.000000
4.214583	-25.625355	530.284241	-13.004346	0.993522	0.000000	-0.410529	-0.242199	1.065955	0.648354	0.000000	0.000000	0.000000	-0.000000	3.987865	-0.000000	0.000000	0.000000	0.000000
4.215625	-25.397982	528.530457	-13.080734	0.992607	0.000000	-0.410457	-0.236777	1.020899	0.630815	0.000000	0.000000	0.000000	-0.000000	3.978005	-0.000000	0.000000	0.000000	0.000000
4.216667	-25.167959	526.801941	-13.204194	0.991694	0.000000	-0.410383	-0.235856	0.983585	0.626237	0.000000	0.000000	0.000000	-0.000000	3.967752	-0.000000	0.000000	0.000000	0.000000
4.217708	-24.932180	525.101379	-13.375920	0.990781	0.000000	-0.410308	-0.239262	0.954239	0.634040	0.000000	0.000000	0.000000	-0.000000	3.957262	-0.000000	0.000000	0.000000	0.000000
4.218750	-24.688074	523.431580	-13.596271	0.989869	0.000000	-0.410230	-0.246714	0.932925	0.653385	0.000000	0.000000	0.000000	-0.000000	3.946686	-0.000000	0.000000	0.000000	0.000000
4.219792	-24.433691	521.795959	-13.864722	0.988956	0.000000	-0.410150	-0.257841	0.919547	0.683202	0.000000	0.000000	0.000000	-0.000000	3.936165	-0.000000	0.000000	0.000000	0.000000
4.220833	-24.167768	520.198120	-14.179840	0.988043	0.000000	-0.410068	-0.272191	0.913851	0.722219	0.000000	0.000000	0.000000	-0.000000	3.925832	-0.000000	0.000000	0.000000	0.000000
4.221875	-23.889769	518.641846	-14.539284	0.987130	0.000000	-0.409985	-0.289244	0.915437	0.768998	0.000000	0.000000	0.000000	-0.000000	3.915807	-0.000000	0.000000	0.000000	0.000000
4.222917	-23.599888	517.131042	-14.939830	0.986214	0.000000	-0.409899	-0.308423	0.923772	0.821962	0.000000	0.000000	0.000000	-0.000000	3.906200	-0.000000	0.000000	0.000000	0.000000
4.223958	-23.299032	515.669434	-15.377419	0.985297	0.000000	-0.409811	-0.329112	0.938200	0.879429	0.000000	0.000000	0.000000	-0.000000	3.897107	-0.000000	0.000000	0.000000	0.000000
4.225000	-22.988777	514.260559	-15.847239	0.984378	0.000000	-0.409721	-0.350663	0.957964	0.939640	0.000000	0.000000	0.000000	-0.000000	3.888612	-0.000000	0.000000	0.000000	0.000000
4.226042	-22.671276	512.907776	-16.343805	0.983457	0.000000	-0.409629	-0.372416	0.982225	1.000799	0.000000	0.000000	0.000000	-0.000000	3.880784	-0.000000	0.000000	0.000000	0.000000
4.227083	-22.349169	511.613892	-16.861090	0.982533	0.000000	-0.409535	-0.393712	1.010081	1.061102	0.000000	0.000000	0.000000	-0.000000	3.873679	-0.000000	0.000000	0.000000	0.000000
4.228125	-22.025442	510.381256	-17.392637	0.981607	0.000000	-0.409439	-0.413913	1.040597	1.118783	0.000000	0.000000	0.000000	-0.000000	3.867336	-0.000000	0.000000	0.000000	0.000000
4.229167	-21.703291	509.211731	-17.931713	0.980677	0.000000	-0.409341	-0.432418	1.072827	1.172149	0.000000	0.000000	0.000000	-0.000000	3.861783	-0.000000	0.000000	0.000000	0.000000
4.230208	-21.385960	508.106537	-18.471458	0.979744	0.000000	-0.409241	-0.448678	1.105838	1.219626	0.000000	0.000000	0.000000	-0.000000	3.857030	-0.000000	0.000000	0.000000	0.000000
4.231250	-21.076580	507.066284	-19.005035	0.978808	0.000000	-0.409138	-0.462223	1.138738	1.259797	0.000000	0.000000	0.000000	-0.000000	3.853075	-0.000000	0.000000	0.000000	0.000000
4.232292	-20.778030	506.091034	-19.525793	0.977868	0.000000	-0.409033	-0.472668	1.170699	1.291443	0.000000	0.000000	0.000000	-0.000000	3.849903	-0.000000	0.000000	0.000000	0.000000
4.233333	-20.492792	505.180267	-20.027422	0.976924	0.000000	-0.408926	-0.479734	1.200976	1.313584	0.000000	0.000000	0.000000	-0.000000	3.847483	-0.000000	0.000000	0.000000	0.000000
